<svg width="135" height="77" viewBox="0 0 135 77" fill="none" xmlns="http://www.w3.org/2000/svg">
<path d="M3.02734 14H15L25.1563 38.7656H25.625L35.7813 14H47.7539V54H38.3398V29.4297H38.0078L28.3984 53.7461H22.3828L12.7734 29.293H12.4414V54H3.02734V14ZM62.2412 54.5078C60.3271 54.5078 58.6279 54.1888 57.1436 53.5508C55.6722 52.8997 54.5068 51.9232 53.6475 50.6211C52.8011 49.306 52.3779 47.6589 52.3779 45.6797C52.3779 44.013 52.6709 42.6068 53.2568 41.4609C53.8428 40.3151 54.6501 39.3841 55.6787 38.668C56.7074 37.9518 57.8923 37.4115 59.2334 37.0469C60.5745 36.6693 62.0068 36.4154 63.5303 36.2852C65.236 36.1289 66.6097 35.9661 67.6514 35.7969C68.693 35.6146 69.4482 35.3607 69.917 35.0352C70.3988 34.6966 70.6396 34.2214 70.6396 33.6094V33.5117C70.6396 32.5091 70.2946 31.7344 69.6045 31.1875C68.9144 30.6406 67.9834 30.3672 66.8115 30.3672C65.5485 30.3672 64.5329 30.6406 63.7646 31.1875C62.9964 31.7344 62.5081 32.4896 62.2998 33.4531L53.4912 33.1406C53.7516 31.3177 54.4222 29.6901 55.5029 28.2578C56.5967 26.8125 58.0941 25.6797 59.9951 24.8594C61.9092 24.026 64.2074 23.6094 66.8896 23.6094C68.8037 23.6094 70.568 23.8372 72.1826 24.293C73.7972 24.7357 75.2035 25.3867 76.4014 26.2461C77.5993 27.0924 78.5238 28.1341 79.1748 29.3711C79.8389 30.6081 80.1709 32.0208 80.1709 33.6094V54H71.1865V49.8203H70.9521C70.4183 50.8359 69.7347 51.6953 68.9014 52.3984C68.0811 53.1016 67.111 53.6289 65.9912 53.9805C64.8844 54.332 63.6344 54.5078 62.2412 54.5078ZM65.1904 48.2578C66.2191 48.2578 67.1436 48.0495 67.9639 47.6328C68.7972 47.2161 69.4613 46.6432 69.9561 45.9141C70.4508 45.1719 70.6982 44.3125 70.6982 43.3359V40.4844C70.4248 40.6276 70.0928 40.7578 69.7021 40.875C69.3245 40.9922 68.9079 41.1029 68.4521 41.207C67.9964 41.3112 67.5277 41.4023 67.0459 41.4805C66.5641 41.5586 66.1019 41.6302 65.6592 41.6953C64.7607 41.8385 63.9925 42.0599 63.3545 42.3594C62.7295 42.6589 62.2477 43.0495 61.9092 43.5312C61.5837 44 61.4209 44.5599 61.4209 45.2109C61.4209 46.2005 61.7725 46.9557 62.4756 47.4766C63.1917 47.9974 64.0967 48.2578 65.1904 48.2578ZM86.0107 65.25V24H95.4639V29.1367H95.7568C96.1475 28.2253 96.7008 27.3464 97.417 26.5C98.1462 25.6536 99.0706 24.9635 100.19 24.4297C101.323 23.8828 102.677 23.6094 104.253 23.6094C106.336 23.6094 108.283 24.1562 110.093 25.25C111.916 26.3437 113.387 28.0299 114.507 30.3086C115.627 32.5872 116.187 35.4909 116.187 39.0195C116.187 42.418 115.646 45.263 114.565 47.5547C113.498 49.8464 112.052 51.5651 110.229 52.7109C108.42 53.8568 106.408 54.4297 104.194 54.4297C102.684 54.4297 101.375 54.1823 100.269 53.6875C99.1618 53.1927 98.2308 52.5417 97.4756 51.7344C96.7334 50.9271 96.1605 50.0612 95.7568 49.1367H95.5615V65.25H86.0107ZM95.3662 39C95.3662 40.6146 95.5811 42.0208 96.0107 43.2187C96.4535 44.4167 97.085 45.3477 97.9053 46.0117C98.7386 46.6628 99.7347 46.9883 100.894 46.9883C102.065 46.9883 103.062 46.6628 103.882 46.0117C104.702 45.3477 105.321 44.4167 105.737 43.2187C106.167 42.0208 106.382 40.6146 106.382 39C106.382 37.3854 106.167 35.9857 105.737 34.8008C105.321 33.6159 104.702 32.6979 103.882 32.0469C103.075 31.3958 102.078 31.0703 100.894 31.0703C99.7217 31.0703 98.7256 31.3893 97.9053 32.0273C97.085 32.6654 96.4535 33.5768 96.0107 34.7617C95.5811 35.9466 95.3662 37.3594 95.3662 39ZM130.742 14V54H121.191V14H130.742Z" fill="#3557BF"/>
<path d="M2.82173 55.5455H5.28693L7.89062 61.8977H8.00142L10.6051 55.5455H13.0703V65H11.1314V58.8462H11.0529L8.60618 64.9538H7.28587L4.83913 58.8232H4.76065V65H2.82173V55.5455ZM15.8944 67.6591C15.6452 67.6591 15.4113 67.6391 15.1927 67.5991C14.9773 67.5621 14.7988 67.5144 14.6572 67.456L15.1004 65.9879C15.3312 66.0587 15.539 66.0972 15.7236 66.1033C15.9114 66.1095 16.0729 66.0664 16.2084 65.9741C16.3469 65.8817 16.4592 65.7248 16.5454 65.5032L16.6608 65.2031L14.1171 57.9091H16.1853L17.6533 63.1165H17.7272L19.2091 57.9091H21.2911L18.5351 65.7663C18.4027 66.148 18.2227 66.4804 17.9949 66.7635C17.7703 67.0497 17.4856 67.2698 17.1409 67.4237C16.7962 67.5806 16.3807 67.6591 15.8944 67.6591ZM25.3432 65V55.5455H29.0733C29.7904 55.5455 30.4013 55.6824 30.9061 55.9563C31.4108 56.2272 31.7955 56.6042 32.0602 57.0874C32.3279 57.5675 32.4618 58.1214 32.4618 58.7493C32.4618 59.3771 32.3264 59.9311 32.0556 60.4112C31.7847 60.8913 31.3923 61.2653 30.8784 61.533C30.3675 61.8008 29.7489 61.9347 29.0225 61.9347H26.6451V60.3327H28.6994C29.0841 60.3327 29.4011 60.2666 29.6504 60.1342C29.9028 59.9988 30.0905 59.8126 30.2136 59.5756C30.3398 59.3356 30.4029 59.0601 30.4029 58.7493C30.4029 58.4354 30.3398 58.1615 30.2136 57.9276C30.0905 57.6906 29.9028 57.5075 29.6504 57.3782C29.398 57.2459 29.0779 57.1797 28.6902 57.1797H27.3422V65H25.3432ZM35.6899 55.5455V65H33.7233V55.5455H35.6899ZM39.2873 65.1339C38.8349 65.1339 38.4317 65.0554 38.0778 64.8984C37.7238 64.7384 37.4438 64.503 37.2376 64.1921C37.0344 63.8782 36.9329 63.4873 36.9329 63.0195C36.9329 62.6256 37.0052 62.2947 37.1499 62.027C37.2945 61.7592 37.4915 61.5438 37.7408 61.3807C37.9901 61.2176 38.2732 61.0945 38.5902 61.0114C38.9103 60.9283 39.2457 60.8698 39.5966 60.8359C40.009 60.7929 40.3414 60.7528 40.5938 60.7159C40.8461 60.6759 41.0292 60.6174 41.1431 60.5405C41.257 60.4635 41.3139 60.3497 41.3139 60.1989V60.1712C41.3139 59.8788 41.2216 59.6526 41.0369 59.4925C40.8554 59.3325 40.5968 59.2525 40.2614 59.2525C39.9074 59.2525 39.6258 59.331 39.4165 59.4879C39.2073 59.6418 39.0688 59.8357 39.0011 60.0696L37.1822 59.9219C37.2745 59.491 37.4561 59.1186 37.7269 58.8047C37.9978 58.4877 38.3471 58.2446 38.7749 58.0753C39.2057 57.9029 39.7043 57.8168 40.2706 57.8168C40.6645 57.8168 41.0415 57.8629 41.4016 57.9553C41.7648 58.0476 42.0864 58.1907 42.3665 58.3846C42.6496 58.5785 42.8728 58.8278 43.0359 59.1325C43.199 59.4341 43.2805 59.7957 43.2805 60.2173V65H41.4155V64.0167H41.3601C41.2462 64.2383 41.0939 64.4337 40.9031 64.603C40.7122 64.7692 40.483 64.9 40.2152 64.9954C39.9474 65.0877 39.6381 65.1339 39.2873 65.1339ZM39.8505 63.7766C40.1398 63.7766 40.3952 63.7197 40.6168 63.6058C40.8384 63.4889 41.0123 63.3319 41.1385 63.1349C41.2647 62.938 41.3278 62.7148 41.3278 62.4656V61.7131C41.2662 61.7531 41.1816 61.79 41.0739 61.8239C40.9692 61.8546 40.8507 61.8839 40.7184 61.9116C40.5861 61.9362 40.4537 61.9593 40.3214 61.9808C40.189 61.9993 40.069 62.0162 39.9613 62.0316C39.7305 62.0655 39.5289 62.1193 39.3565 62.1932C39.1842 62.267 39.0503 62.3671 38.9549 62.4933C38.8595 62.6164 38.8118 62.7702 38.8118 62.9549C38.8118 63.2227 38.9087 63.4273 39.1026 63.5689C39.2996 63.7074 39.5489 63.7766 39.8505 63.7766ZM46.7729 60.9006V65H44.8063V57.9091H46.6806V59.1602H46.7637C46.9206 58.7478 47.1838 58.4215 47.5531 58.1815C47.9224 57.9383 48.3702 57.8168 48.8965 57.8168C49.3889 57.8168 49.8182 57.9245 50.1845 58.1399C50.5507 58.3554 50.8354 58.6631 51.0385 59.0632C51.2417 59.4602 51.3432 59.9342 51.3432 60.4851V65H49.3766V60.8359C49.3797 60.402 49.2689 60.0634 49.0442 59.8203C48.8195 59.5741 48.5102 59.451 48.1163 59.451C47.8516 59.451 47.6177 59.5079 47.4146 59.6218C47.2145 59.7357 47.0576 59.9019 46.9437 60.1204C46.8329 60.3358 46.776 60.5959 46.7729 60.9006ZM54.8598 60.9006V65H52.8932V57.9091H54.7675V59.1602H54.8506C55.0075 58.7478 55.2707 58.4215 55.64 58.1815C56.0093 57.9383 56.4571 57.8168 56.9834 57.8168C57.4758 57.8168 57.9052 57.9245 58.2714 58.1399C58.6376 58.3554 58.9223 58.6631 59.1254 59.0632C59.3286 59.4602 59.4301 59.9342 59.4301 60.4851V65H57.4635V60.8359C57.4666 60.402 57.3558 60.0634 57.1311 59.8203C56.9065 59.5741 56.5972 59.451 56.2032 59.451C55.9385 59.451 55.7046 59.5079 55.5015 59.6218C55.3015 59.7357 55.1445 59.9019 55.0306 60.1204C54.9198 60.3358 54.8629 60.5959 54.8598 60.9006ZM64.2116 65.1385C63.4822 65.1385 62.8544 64.9908 62.3281 64.6953C61.8049 64.3968 61.4018 63.9751 61.1186 63.4304C60.8355 62.8826 60.6939 62.2347 60.6939 61.4869C60.6939 60.7575 60.8355 60.1173 61.1186 59.5664C61.4018 59.0155 61.8003 58.5862 62.3143 58.2784C62.8313 57.9706 63.4376 57.8168 64.1332 57.8168C64.601 57.8168 65.0365 57.8922 65.4396 58.043C65.8459 58.1907 66.1998 58.4138 66.5014 58.7124C66.8061 59.0109 67.0431 59.3864 67.2124 59.8388C67.3816 60.2881 67.4663 60.8144 67.4663 61.4176V61.9577H61.4787V60.739H65.6151C65.6151 60.4558 65.5535 60.205 65.4304 59.9865C65.3073 59.768 65.1365 59.5972 64.918 59.4741C64.7025 59.3479 64.4517 59.2848 64.1655 59.2848C63.867 59.2848 63.6023 59.354 63.3714 59.4925C63.1437 59.628 62.9652 59.8111 62.8359 60.0419C62.7067 60.2696 62.6405 60.5236 62.6374 60.8036V61.9624C62.6374 62.3132 62.7021 62.6164 62.8313 62.8718C62.9637 63.1272 63.1499 63.3242 63.3899 63.4627C63.63 63.6012 63.9147 63.6705 64.244 63.6705C64.4625 63.6705 64.6625 63.6397 64.8441 63.5781C65.0257 63.5166 65.1811 63.4242 65.3104 63.3011C65.4396 63.178 65.5381 63.0272 65.6058 62.8487L67.4247 62.9688C67.3324 63.4058 67.1431 63.7874 66.8569 64.1136C66.5737 64.4368 66.2075 64.6892 65.7582 64.8707C65.3119 65.0492 64.7964 65.1385 64.2116 65.1385ZM68.7496 65V57.9091H70.6562V59.1463H70.7301C70.8594 58.7062 71.0763 58.3738 71.381 58.1491C71.6857 57.9214 72.0366 57.8075 72.4336 57.8075C72.5321 57.8075 72.6383 57.8137 72.7521 57.826C72.866 57.8383 72.966 57.8552 73.0522 57.8768V59.6218C72.9599 59.5941 72.8321 59.5695 72.669 59.5479C72.5059 59.5264 72.3567 59.5156 72.2212 59.5156C71.9319 59.5156 71.6734 59.5787 71.4457 59.7049C71.221 59.828 71.0425 60.0004 70.9102 60.2219C70.7809 60.4435 70.7163 60.699 70.7163 60.9883V65H68.7496Z" fill="#3557BF"/>
</svg>
