<svg width="135" height="77" viewBox="0 0 135 77" fill="none" xmlns="http://www.w3.org/2000/svg">
<path d="M3.02734 14H15L25.1563 38.7656H25.625L35.7813 14H47.7539V54H38.3398V29.4297H38.0078L28.3984 53.7461H22.3828L12.7734 29.293H12.4414V54H3.02734V14ZM62.2412 54.5078C60.3271 54.5078 58.6279 54.1888 57.1436 53.5508C55.6722 52.8997 54.5068 51.9232 53.6475 50.6211C52.8011 49.306 52.3779 47.6589 52.3779 45.6797C52.3779 44.013 52.6709 42.6068 53.2568 41.4609C53.8428 40.3151 54.6501 39.3841 55.6787 38.668C56.7074 37.9518 57.8923 37.4115 59.2334 37.0469C60.5745 36.6693 62.0068 36.4154 63.5303 36.2852C65.236 36.1289 66.6097 35.9661 67.6514 35.7969C68.693 35.6146 69.4482 35.3607 69.917 35.0352C70.3988 34.6966 70.6396 34.2214 70.6396 33.6094V33.5117C70.6396 32.5091 70.2946 31.7344 69.6045 31.1875C68.9144 30.6406 67.9834 30.3672 66.8115 30.3672C65.5485 30.3672 64.5329 30.6406 63.7646 31.1875C62.9964 31.7344 62.5081 32.4896 62.2998 33.4531L53.4912 33.1406C53.7516 31.3177 54.4222 29.6901 55.5029 28.2578C56.5967 26.8125 58.0941 25.6797 59.9951 24.8594C61.9092 24.026 64.2074 23.6094 66.8896 23.6094C68.8037 23.6094 70.568 23.8372 72.1826 24.293C73.7972 24.7357 75.2035 25.3867 76.4014 26.2461C77.5993 27.0924 78.5238 28.1341 79.1748 29.3711C79.8389 30.6081 80.1709 32.0208 80.1709 33.6094V54H71.1865V49.8203H70.9521C70.4183 50.8359 69.7347 51.6953 68.9014 52.3984C68.0811 53.1016 67.111 53.6289 65.9912 53.9805C64.8844 54.332 63.6344 54.5078 62.2412 54.5078ZM65.1904 48.2578C66.2191 48.2578 67.1436 48.0495 67.9639 47.6328C68.7972 47.2161 69.4613 46.6432 69.9561 45.9141C70.4508 45.1719 70.6982 44.3125 70.6982 43.3359V40.4844C70.4248 40.6276 70.0928 40.7578 69.7021 40.875C69.3245 40.9922 68.9079 41.1029 68.4521 41.207C67.9964 41.3112 67.5277 41.4023 67.0459 41.4805C66.5641 41.5586 66.1019 41.6302 65.6592 41.6953C64.7607 41.8385 63.9925 42.0599 63.3545 42.3594C62.7295 42.6589 62.2477 43.0495 61.9092 43.5312C61.5837 44 61.4209 44.5599 61.4209 45.2109C61.4209 46.2005 61.7725 46.9557 62.4756 47.4766C63.1917 47.9974 64.0967 48.2578 65.1904 48.2578ZM86.0107 65.25V24H95.4639V29.1367H95.7568C96.1475 28.2253 96.7008 27.3464 97.417 26.5C98.1462 25.6536 99.0706 24.9635 100.19 24.4297C101.323 23.8828 102.677 23.6094 104.253 23.6094C106.336 23.6094 108.283 24.1562 110.093 25.25C111.916 26.3437 113.387 28.0299 114.507 30.3086C115.627 32.5872 116.187 35.4909 116.187 39.0195C116.187 42.418 115.646 45.263 114.565 47.5547C113.498 49.8464 112.052 51.5651 110.229 52.7109C108.42 53.8568 106.408 54.4297 104.194 54.4297C102.684 54.4297 101.375 54.1823 100.269 53.6875C99.1618 53.1927 98.2308 52.5417 97.4756 51.7344C96.7334 50.9271 96.1605 50.0612 95.7568 49.1367H95.5615V65.25H86.0107ZM95.3662 39C95.3662 40.6146 95.5811 42.0208 96.0107 43.2187C96.4535 44.4167 97.085 45.3477 97.9053 46.0117C98.7386 46.6628 99.7347 46.9883 100.894 46.9883C102.065 46.9883 103.062 46.6628 103.882 46.0117C104.702 45.3477 105.321 44.4167 105.737 43.2187C106.167 42.0208 106.382 40.6146 106.382 39C106.382 37.3854 106.167 35.9857 105.737 34.8008C105.321 33.6159 104.702 32.6979 103.882 32.0469C103.075 31.3958 102.078 31.0703 100.894 31.0703C99.7217 31.0703 98.7256 31.3893 97.9053 32.0273C97.085 32.6654 96.4535 33.5768 96.0107 34.7617C95.5811 35.9466 95.3662 37.3594 95.3662 39ZM130.742 14V54H121.191V14H130.742Z" fill="#1C423F"/>
<path d="M3.80043 55.5455H6.26562L7.82138 61.8977H7.93217L11.5838 55.5455H14.049L12.4794 65H10.5405L11.5653 58.8462H11.4822L8.02912 64.9538H6.70419L5.28232 58.8232H5.20384L4.16974 65H2.23082L3.80043 55.5455ZM14.8696 67.6591C14.6172 67.6591 14.3864 67.6391 14.1771 67.5991C13.9678 67.5621 13.7955 67.5144 13.6601 67.456L14.3525 65.9879C14.5711 66.0587 14.7696 66.0956 14.9481 66.0987C15.1296 66.1018 15.2958 66.0556 15.4466 65.9602C15.5974 65.8648 15.7359 65.7079 15.8621 65.4893L16.0376 65.1893L14.708 57.9091H16.7023L17.3025 63.1257H17.3763L19.7261 57.9091H21.882L17.8241 65.7663C17.6241 66.151 17.3871 66.485 17.1132 66.7681C16.8424 67.0513 16.5207 67.2698 16.1483 67.4237C15.779 67.5806 15.3528 67.6591 14.8696 67.6591ZM24.7523 65L26.3219 55.5455H30.052C30.766 55.5455 31.3523 55.6824 31.8109 55.9563C32.2725 56.2272 32.5957 56.6042 32.7804 57.0874C32.9681 57.5675 33.0112 58.1214 32.9096 58.7493C32.805 59.3802 32.5772 59.9357 32.2264 60.4158C31.8786 60.8929 31.4262 61.2653 30.8691 61.533C30.3121 61.8008 29.6689 61.9347 28.9395 61.9347H26.562L26.8251 60.3327H28.8794C29.2672 60.3327 29.5981 60.2666 29.872 60.1342C30.149 59.9988 30.369 59.8126 30.5321 59.5756C30.6953 59.3356 30.8014 59.0601 30.8507 58.7493C30.903 58.4323 30.8861 58.1568 30.7999 57.9229C30.7137 57.689 30.5552 57.5075 30.3244 57.3782C30.0967 57.2459 29.7904 57.1797 29.4057 57.1797H28.0577L26.7512 65H24.7523ZM36.6686 55.5455L35.099 65H33.1324L34.702 55.5455H36.6686ZM38.6779 65.1339C38.2286 65.1339 37.8393 65.0554 37.5099 64.8984C37.1837 64.7384 36.9437 64.5014 36.7898 64.1875C36.6359 63.8736 36.5974 63.4843 36.6744 63.0195C36.7421 62.6256 36.8698 62.2963 37.0575 62.0316C37.2483 61.7638 37.4807 61.5484 37.7546 61.3853C38.0285 61.2222 38.3317 61.0975 38.6641 61.0114C38.9995 60.9252 39.3458 60.8667 39.7028 60.8359C40.1152 60.7929 40.4506 60.7513 40.7092 60.7113C40.9708 60.6713 41.1662 60.6143 41.2955 60.5405C41.4247 60.4635 41.5032 60.3497 41.5309 60.1989V60.1712C41.5771 59.8819 41.5232 59.6572 41.3693 59.4972C41.2185 59.334 40.9769 59.2525 40.6445 59.2525C40.2937 59.2525 39.9951 59.3294 39.7489 59.4833C39.5058 59.6372 39.3319 59.8326 39.2273 60.0696L37.4361 59.9219C37.5961 59.491 37.8377 59.1186 38.1609 58.8047C38.4871 58.4877 38.8795 58.2446 39.3381 58.0753C39.7966 57.9029 40.3106 57.8168 40.88 57.8168C41.2739 57.8168 41.6417 57.8629 41.9833 57.9553C42.328 58.0476 42.625 58.1907 42.8743 58.3846C43.1267 58.5785 43.3082 58.8278 43.419 59.1325C43.5329 59.4341 43.556 59.7957 43.4883 60.2173L42.6896 65H40.8246L40.9908 64.0167H40.9354C40.7846 64.2383 40.5999 64.4337 40.3814 64.603C40.1629 64.7692 39.9121 64.9 39.6289 64.9954C39.3458 65.0877 39.0288 65.1339 38.6779 65.1339ZM39.4673 63.7766C39.7536 63.7766 40.0167 63.7197 40.2567 63.6058C40.4999 63.4889 40.6999 63.3319 40.8569 63.1349C41.0169 62.938 41.1185 62.7148 41.1616 62.4656L41.2816 61.7131C41.2201 61.7531 41.1308 61.7885 41.0138 61.8192C40.9 61.85 40.7753 61.8793 40.6399 61.907C40.5076 61.9316 40.3737 61.9547 40.2383 61.9762C40.1029 61.9947 39.9813 62.0131 39.8736 62.0316C39.6366 62.0655 39.4242 62.1193 39.2365 62.1932C39.0488 62.267 38.8964 62.3671 38.7795 62.4933C38.6625 62.6164 38.5902 62.7702 38.5625 62.9549C38.5194 63.2227 38.5825 63.4273 38.7518 63.5689C38.9241 63.7074 39.1626 63.7766 39.4673 63.7766ZM46.8745 60.9006L46.1912 65H44.2292L45.411 57.9091H47.2807L47.0776 59.1602H47.1561C47.3807 58.7447 47.6977 58.4169 48.1071 58.1768C48.5195 57.9368 48.9888 57.8168 49.5151 57.8168C50.0075 57.8168 50.4184 57.9245 50.7477 58.1399C51.0801 58.3554 51.314 58.6616 51.4494 59.0586C51.5879 59.4556 51.611 59.9311 51.5186 60.4851L50.7615 65H48.7949L49.492 60.8359C49.5628 60.402 49.5074 60.0634 49.3258 59.8203C49.1473 59.5741 48.8596 59.451 48.4625 59.451C48.1979 59.451 47.9547 59.5079 47.7331 59.6218C47.5115 59.7357 47.3253 59.9019 47.1745 60.1204C47.0268 60.3358 46.9268 60.5959 46.8745 60.9006ZM54.9614 60.9006L54.2781 65H52.3161L53.498 57.9091H55.3676L55.1645 59.1602H55.243C55.4677 58.7447 55.7847 58.4169 56.194 58.1768C56.6064 57.9368 57.0757 57.8168 57.602 57.8168C58.0944 57.8168 58.5053 57.9245 58.8346 58.1399C59.167 58.3554 59.4009 58.6616 59.5363 59.0586C59.6748 59.4556 59.6979 59.9311 59.6056 60.4851L58.8485 65H56.8818L57.5789 60.8359C57.6497 60.402 57.5943 60.0634 57.4127 59.8203C57.2342 59.5741 56.9465 59.451 56.5494 59.451C56.2848 59.451 56.0416 59.5079 55.82 59.6218C55.5985 59.7357 55.4123 59.9019 55.2615 60.1204C55.1137 60.3358 55.0137 60.5959 54.9614 60.9006ZM63.6023 65.1385C62.8759 65.1385 62.2743 64.9908 61.7972 64.6953C61.3202 64.3968 60.9847 63.9751 60.7908 63.4304C60.6 62.8826 60.5677 62.2347 60.6939 61.4869C60.817 60.7575 61.0647 60.1173 61.4371 59.5664C61.8126 59.0155 62.2835 58.5862 62.8498 58.2784C63.4161 57.9706 64.047 57.8168 64.7425 57.8168C65.2103 57.8168 65.6335 57.8922 66.0121 58.043C66.3937 58.1907 66.7107 58.4154 66.9631 58.717C67.2154 59.0155 67.3878 59.3894 67.4801 59.8388C67.5755 60.2881 67.574 60.8144 67.4755 61.4176L67.3878 61.9577H61.4048L61.5941 60.739H65.7305C65.7766 60.4558 65.7582 60.205 65.6751 59.9865C65.592 59.768 65.4535 59.5972 65.2596 59.4741C65.0657 59.3479 64.8272 59.2848 64.544 59.2848C64.2547 59.2848 63.9839 59.3556 63.7315 59.4972C63.4792 59.6387 63.2668 59.8249 63.0945 60.0558C62.9252 60.2835 62.8159 60.5312 62.7667 60.799L62.5497 62.0085C62.4882 62.3809 62.5005 62.6902 62.5866 62.9364C62.6759 63.1826 62.8298 63.3673 63.0483 63.4904C63.2668 63.6104 63.5438 63.6705 63.8793 63.6705C64.0978 63.6705 64.3024 63.6397 64.4933 63.5781C64.6871 63.5166 64.8595 63.4258 65.0103 63.3058C65.1611 63.1826 65.2842 63.0303 65.3796 62.8487L67.1754 62.9688C67.0092 63.4058 66.7569 63.7874 66.4183 64.1136C66.0798 64.4368 65.672 64.6892 65.195 64.8707C64.721 65.0492 64.1901 65.1385 63.6023 65.1385ZM68.1714 65L69.3532 57.9091H71.2599L71.0521 59.1463H71.126C71.3291 58.7062 71.6015 58.3738 71.9431 58.1491C72.2878 57.9214 72.6586 57.8075 73.0557 57.8075C73.1541 57.8075 73.2573 57.8137 73.365 57.826C73.4758 57.8352 73.5742 57.8506 73.6604 57.8722L73.365 59.6218C73.2788 59.591 73.1557 59.5664 72.9956 59.5479C72.8387 59.5264 72.6894 59.5156 72.5479 59.5156C72.2616 59.5156 71.9954 59.5787 71.7492 59.7049C71.503 59.828 71.2952 60.0004 71.126 60.2219C70.9598 60.4435 70.8505 60.699 70.7982 60.9883L70.1381 65H68.1714Z" fill="#1C423F"/>
</svg>
